<svg xmlns="http://www.w3.org/2000/svg" width="256" height="256"><path fill-opacity=".016" d="M0 128.004v128.004l128.25-.254 128.25-.254.254-127.75L257.008 0H0v128.004m.485.496c0 70.4.119 99.053.265 63.672.146-35.38.146-92.98 0-128C.604 29.153.485 58.1.485 128.5" fill="#d28819" fill-rule="evenodd"/><path fill-opacity=".171" d="M0 128.004v128.004l128.25-.254 128.25-.254.254-127.75L257.008 0H0v128.004m.485.496c0 70.4.119 99.053.265 63.672.146-35.38.146-92.98 0-128C.604 29.153.485 58.1.485 128.5M72 125.191c-1.925 4.447-3.65 8.473-3.833 8.947-.184.474.105.862.641.862s1.258-1.125 1.603-2.5c.553-2.204 1.161-2.5 5.133-2.5 3.983 0 4.632.319 5.6 2.75.602 1.512 1.278 2.263 1.502 1.669.389-1.031-5.133-15.154-6.496-16.616-.358-.383-2.225 2.941-4.15 7.388m46.75-7.485c2.121.408 2.25.916 2.25 8.864 0 4.953.412 8.43 1 8.43.588 0 1-3.477 1-8.43 0-7.948.129-8.456 2.25-8.864 1.237-.239-.225-.434-3.25-.434s-4.487.195-3.25.434m32.25 7.56c-1.925 4.479-3.65 8.502-3.833 8.939-.184.437.105.795.641.795s1.258-1.125 1.603-2.5c.553-2.204 1.161-2.5 5.129-2.5 3.833 0 4.672.372 5.642 2.5.626 1.375 1.482 2.5 1.902 2.5.734 0-5.644-15.777-6.948-17.189-.35-.378-2.211 2.976-4.136 7.455m-76.839-1.719C72.423 127.36 72.703 128 76.107 128c2.567 0 2.982-.304 2.387-1.75a40.476 40.476 0 01-1.224-3.5c-.704-2.449-1.753-2.181-3.109.797m79 0c-1.738 3.813-1.458 4.453 1.946 4.453 2.567 0 2.982-.304 2.387-1.75a40.476 40.476 0 01-1.224-3.5c-.704-2.449-1.753-2.181-3.109.797M86 129.606c0 6.653 1.776 7.175 2.195.644.259-4.029.641-4.798 2.52-5.065 2.293-.326 2.728.548 3.641 7.315.223 1.65.347.525.275-2.5l-.131-5.5-4.25-.144-4.25-.145v5.395m14.504-.597c2.418 4.77 2.463 5.155.943 8.093-.877 1.696-1.342 3.336-1.034 3.645.309.308 1.721-2.062 3.139-5.268 1.417-3.205 3.235-7.1 4.038-8.654.804-1.554 1.083-2.825.621-2.825-.462 0-1.603 1.599-2.535 3.553-1.898 3.98-2.843 3.873-4.667-.532-.688-1.661-1.655-3.021-2.147-3.021-.493 0 .246 2.254 1.642 5.009m27.531-3.075c-1.543 2.884-1.257 5.555.794 7.411 2.1 1.9 4.465 2.103 7.237.62 2.217-1.187 2.688-6.811.734-8.765-1.954-1.954-7.578-1.483-8.765.734M165 129.606c0 6.653 1.776 7.175 2.195.644.259-4.029.641-4.798 2.52-5.065 2.293-.326 2.728.548 3.641 7.315.223 1.65.347.525.275-2.5l-.131-5.5-4.25-.144-4.25-.145v5.395m14.504-.597c2.418 4.77 2.463 5.155.943 8.093-.877 1.696-1.369 3.309-1.094 3.584.564.564 2.355-2.708 6.027-11.011 1.381-3.121 2.114-5.675 1.63-5.675s-1.45 1.575-2.146 3.5-1.633 3.5-2.081 3.5c-.448 0-1.566-1.575-2.484-3.5-.918-1.925-2.044-3.5-2.501-3.5-.457 0 .31 2.254 1.706 5.009m-50.705-1.467c-.987 2.167-.854 2.848.904 4.605 2.587 2.588 6.04 1.724 6.906-1.727 1.309-5.215-5.588-7.756-7.81-2.878" fill="#d28819" fill-rule="evenodd"/><path fill-opacity=".226" d="M0 128.004v128.004l128.25-.254 128.25-.254.254-127.75L257.008 0H0v128.004m.485.496c0 70.4.119 99.053.265 63.672.146-35.38.146-92.98 0-128C.604 29.153.485 58.1.485 128.5m71.265-3.654c-2.062 4.779-3.75 9.019-3.75 9.422 0 1.662 1.758.56 2.818-1.768.929-2.038 1.852-2.5 5-2.5 3.148 0 4.071.462 5 2.5 1.866 4.096 3.387 2.918 1.612-1.25-.878-2.062-2.492-6-3.585-8.75s-2.293-5.302-2.667-5.672c-.373-.37-2.365 3.238-4.428 8.018M116.5 118c.34.55 1.491 1 2.559 1 1.76 0 1.941.748 1.941 8 0 4.667.417 8 1 8s1-3.333 1-8c0-7.252.181-8 1.941-8 1.068 0 2.219-.45 2.559-1 .386-.625-1.676-1-5.5-1s-5.886.375-5.5 1m34.119 7.423c-1.991 4.633-3.619 8.683-3.619 9 0 1.53 1.806.298 2.818-1.923.929-2.038 1.852-2.5 5-2.5 3.148 0 4.071.462 5 2.5.998 2.19 3.881 3.802 3.015 1.686-4.552-11.123-7.338-17.186-7.897-17.186-.384 0-2.327 3.791-4.317 8.423m-75.872-2.739a40.755 40.755 0 01-1.241 3.566c-.594 1.444-.181 1.75 2.366 1.75 2.982 0 3.046-.092 1.917-2.75-1.691-3.978-2.453-4.621-3.042-2.566m79 0a40.755 40.755 0 01-1.241 3.566c-.594 1.444-.181 1.75 2.366 1.75 2.982 0 3.046-.092 1.917-2.75-1.691-3.978-2.453-4.621-3.042-2.566m-65.497 1.022c-2.004.386-2.25 1.027-2.25 5.864 0 2.986.45 5.43 1 5.43s1-1.745 1-3.878c0-3.936 2.032-6.838 3.956-5.649.574.355 1.044 2.643 1.044 5.086 0 2.443.45 4.441 1 4.441 1.419 0 1.245-9.355-.2-10.8-1.222-1.222-1.597-1.256-5.55-.494m9.75.208c0 .568.986 3.063 2.192 5.545 2.105 4.333 2.126 4.651.516 8.026-1.214 2.546-1.335 3.512-.442 3.506 1.086-.008 8.762-15.2 8.742-17.3-.018-1.787-2.303.77-3.72 4.162l-1.508 3.609-1.881-3.666c-1.928-3.759-3.899-5.721-3.899-3.882m31.223.643c-2.479 1.735-3.081 7.185-1.023 9.243 2.058 2.058 7.508 1.456 9.243-1.023 2.136-3.049 1.963-4.462-.898-7.322-2.86-2.861-4.273-3.034-7.322-.898m38.027-.851c-2.004.386-2.25 1.027-2.25 5.864 0 2.986.45 5.43 1 5.43s1-1.745 1-3.878c0-3.936 2.032-6.838 3.956-5.649.574.355 1.044 2.643 1.044 5.086 0 2.443.45 4.441 1 4.441 1.419 0 1.245-9.355-.2-10.8-1.222-1.222-1.597-1.256-5.55-.494m9.75.208c0 .568.986 3.063 2.192 5.545 2.105 4.333 2.126 4.651.516 8.026-1.259 2.642-1.359 3.515-.399 3.515 1.109 0 8.704-15.12 8.695-17.309-.008-1.773-2.123.655-3.595 4.127l-1.561 3.682-1.915-3.685c-1.965-3.783-3.933-5.734-3.933-3.901m-46.954 2.531c-.66.795-1.052 2.482-.873 3.75.422 2.973 4.657 3.759 6.521 1.209 1.679-2.296 1.644-2.923-.265-4.833-1.959-1.958-3.826-2.002-5.383-.126m-23.93 23.305c-.097 3.562.194 4.25 1.801 4.25 1.054 0 2.179-.562 2.5-1.25.466-1 .7-1 1.166 0 .321.688 1.334 1.243 2.25 1.235 1.323-.012 1.386-.194.304-.879-1.087-.689-1.102-.951-.073-1.294.742-.247.965-.957.524-1.67-.565-.914-1.115-.949-2.099-.133-1.578 1.31-5.176-.525-5.842-2.98-.228-.841-.467.383-.531 2.721M140 147.259c0 .693-.887 1.814-1.972 2.491-2.357 1.472-1.651 4.25 1.079 4.25 1.542 0 1.893-.742 1.893-4 0-2.2-.225-4-.5-4s-.5.567-.5 1.259m5.079 2.491c-.059 3.184.305 4.25 1.452 4.25 2.188 0 3.092-3.07 1.294-4.395-.825-.608-1.763-1.78-2.084-2.605-.321-.825-.619.412-.662 2.75m-56.009 1.5c.067 2.133.112 2.146.865.25l.795-2 .519 2c.473 1.824.529 1.802.635-.25.071-1.385-.461-2.25-1.384-2.25-.91 0-1.472.885-1.43 2.25m10 .06c.068 2.112.101 2.119.93.19.794-1.847.872-1.809 1.029.5l.17 2.5.703-2.5c.682-2.429.737-2.443 1.937-.5 1.22 1.976 1.231 1.976.938.021-.203-1.353-1.164-2.047-3.037-2.191-2.235-.171-2.727.194-2.67 1.98M117 151c0 1.1.173 2 .383 2 .211 0 .619-.9.907-2 .287-1.1.115-2-.384-2-.498 0-.906.9-.906 2m3.356.499c.147 2.551 1.069 3.24 2.101 1.57.317-.512.111-1.218-.457-1.569-.568-.351-.774-1.057-.457-1.569.316-.512.146-.931-.378-.931s-.889 1.125-.809 2.499m6.024-1.047c-.712 1.856.327 3.548 2.179 3.548.87 0 1.441-.99 1.441-2.5 0-2.748-2.671-3.521-3.62-1.048m5.69.798c.067 2.133.112 2.146.865.25l.795-2 .519 2c.473 1.824.529 1.802.635-.25.071-1.385-.461-2.25-1.384-2.25-.91 0-1.472.885-1.43 2.25m18.294-.757c-.346.903-.15 2.121.436 2.707 1.524 1.524 4.41.131 4.012-1.935-.443-2.302-3.647-2.858-4.448-.772m6.311-.835c-.362.362-.156 1.262.456 2 .834 1.005.79 1.342-.175 1.342-.709 0-1 .289-.647.643.354.353 1.329.073 2.167-.623 1.042-.865 1.524-.91 1.524-.142 0 .617.787 1.086 1.75 1.043 1.045-.047 1.247-.282.5-.583-.687-.278-1.243-1.255-1.235-2.171.013-1.416.155-1.446.946-.196.512.809 1.262 1.139 1.668.733.406-.405.216-1.259-.422-1.897-.88-.88-1.649-.717-3.183.672-1.822 1.648-2.482 1.424-2.142-.729.146-.925-.337-.962-1.207-.092m8.868.273c-.317.512-.07 1.243.547 1.625.796.492.728.945-.233 1.554-.908.575-.963.864-.166.875 1.652.021 2.564-1.71 1.309-2.485-.568-.351-.774-1.057-.457-1.569.316-.512.35-.931.075-.931-.275 0-.759.419-1.075.931m-71.427 1.819c-.071 1.385.461 2.25 1.384 2.25.91 0 1.472-.885 1.43-2.25-.067-2.133-.112-2.146-.865-.25l-.795 2-.519-2c-.473-1.824-.529-1.802-.635.25M107 151.5c0 .917.484 1.505 1.075 1.308.591-.197 1.075-.786 1.075-1.308s-.484-1.111-1.075-1.308c-.591-.197-1.075.391-1.075 1.308m20 0c0 .825.45 1.5 1 1.5s1-.675 1-1.5-.45-1.5-1-1.5-1 .675-1 1.5m10.694-.861c-.799.799.104 2.361 1.365 2.361.518 0 .941-.675.941-1.5 0-1.546-1.18-1.987-2.306-.861m8.306.861c0 .825.45 1.5 1 1.5s1-.675 1-1.5-.45-1.5-1-1.5-1 .675-1 1.5m5.553-.585a1.116 1.116 0 00.362 1.532c.521.322 1.21.159 1.532-.362a1.116 1.116 0 00-.362-1.532 1.116 1.116 0 00-1.532.362" fill="#d28819" fill-rule="evenodd"/><path fill-opacity=".124" d="M0 128.004v128.004l128.25-.254 128.25-.254.254-127.75L257.008 0H0v128.004m.485.496c0 70.4.119 99.053.265 63.672.146-35.38.146-92.98 0-128C.604 29.153.485 58.1.485 128.5m74.221-11.25c-.28.688-2.111 4.963-4.069 9.5-2.745 6.359-3.221 8.25-2.078 8.25.816 0 1.996-1.125 2.623-2.5.919-2.016 1.861-2.5 4.87-2.5 3.146 0 3.83.392 4.359 2.5.345 1.375 1.342 2.5 2.215 2.5 1.792 0 1.839.181-2.909-11.237-3.223-7.752-4.063-8.844-5.011-6.513m41.294.25c0 .933.944 1.5 2.5 1.5 2.458 0 2.5.133 2.5 8 0 4.667.417 8 1 8s1-3.333 1-8c0-7.867.042-8 2.5-8 1.556 0 2.5-.567 2.5-1.5 0-1.167-1.333-1.5-6-1.5s-6 .333-6 1.5m36.691 2.25c-.84 2.063-2.683 6.338-4.096 9.5-2.081 4.657-2.283 5.75-1.061 5.75.83 0 2.021-1.125 2.648-2.5.919-2.016 1.861-2.5 4.87-2.5 3.146 0 3.83.392 4.359 2.5.345 1.375 1.342 2.5 2.215 2.5 1.771 0 1.883.441-2.869-11.25-1.733-4.263-3.463-7.75-3.845-7.75-.382 0-1.382 1.688-2.221 3.75M75 122.718c0 .615-.25 1.771-.557 2.569-.349.911.223 1.654 1.542 1.999 1.774.464 1.996.214 1.444-1.619-.78-2.587-2.429-4.588-2.429-2.949m79 0c0 .615-.25 1.771-.557 2.569-.349.911.223 1.654 1.542 1.999 1.774.464 1.996.214 1.444-1.619-.78-2.587-2.429-4.588-2.429-2.949m-68 6.446c0 3.224.448 5.836 1 5.836.55 0 1.006-1.012 1.014-2.25.025-4.23 1.184-6.75 3.103-6.75 1.565 0 1.883.76 1.883 4.5 0 3.333.389 4.5 1.5 4.5 1.087 0 1.5-1.118 1.5-4.066 0-6.218-1.342-7.945-6.031-7.762l-3.969.156v5.836m11-5.631c0 .294 1.135 2.772 2.521 5.509 2.362 4.66 2.425 5.162 1 7.917-1.761 3.405-1.933 5.041-.531 5.041.836 0 10.01-16.937 10.01-18.48 0-.286-.679-.52-1.508-.52-.839 0-2.257 1.872-3.197 4.221l-1.689 4.221-1.841-4.221C100.753 124.9 99.266 123 98.462 123c-.804 0-1.462.24-1.462.533M128 125c-1.1 1.1-2 2.92-2 4.045 0 2.167 4.145 6.955 6.02 6.955 1.541 0 5.328-2.071 6.215-3.4 2.425-3.632-1.14-9.6-5.735-9.6-1.375 0-3.4.9-4.5 2m37 4.164c0 4.521.338 5.836 1.5 5.836 1.111 0 1.5-1.167 1.5-4.5 0-3.833.296-4.5 2-4.5s2 .667 2 4.5c0 3.333.389 4.5 1.5 4.5 1.087 0 1.5-1.118 1.5-4.066 0-6.218-1.342-7.945-6.031-7.762l-3.969.156v5.836m11-5.502c0 .364 1.179 2.675 2.621 5.135 2.535 4.326 2.568 4.583 1 7.872-1.864 3.909-2.033 5.331-.631 5.331.836 0 10.01-16.937 10.01-18.48 0-.286-.669-.52-1.487-.52-.817 0-2.201 1.688-3.075 3.75l-1.59 3.75-1.948-3.75c-1.071-2.062-2.612-3.75-3.424-3.75-.812 0-1.476.298-1.476.662m-45.471 2.693c-2.032 1.486-1.737 4.485.585 5.947 2.395 1.508 4.886.114 4.886-2.735 0-3.205-3.04-4.99-5.471-3.212m-24.413 23.287l-.116 4.141 5.918-.073c5.342-.065 5.961-.295 6.355-2.356.399-2.091.09-2.274-3.668-2.173-6.451.175-7.428-.064-7.916-1.931-.251-.963-.509.114-.573 2.392M140 147.5c0 1.655-1.171 1.868-8.378 1.528-3.069-.145-5.168.237-5.658 1.03-1.386 2.242.155 3.942 3.573 3.942 2.652 0 3.412-.455 3.757-2.25.404-2.094.443-2.105.57-.162.108 1.666.844 2.115 3.636 2.22 3.434.129 3.5.057 3.5-3.838 0-2.184-.225-3.97-.5-3.97s-.5.675-.5 1.5m4 2.5c0 3.6.25 4 2.5 4 1.375 0 2.5-.54 2.5-1.2 0-.933.267-.933 1.2 0 2.153 2.153 4.8 1.437 4.8-1.3s-2.647-3.453-4.8-1.3c-.933.933-1.2.933-1.2 0 0-.66-.675-1.2-1.5-1.2s-1.5-.675-1.5-1.5-.45-1.5-1-1.5-1 1.8-1 4m-56 1.53c0 3.089 1.71 3.252 2.294.22.409-2.124.441-2.132.57-.143.117 1.811.769 2.107 4.636 2.107 3.438 0 4.517-.379 4.57-1.607.052-1.192.276-1.091.865.393l.795 2 .519-2c.423-1.632.54-1.678.635-.25.064.963.597 1.75 1.186 1.75.588 0 .925-1.012.75-2.25-.27-1.897-.979-2.273-4.514-2.394-3.55-.122-4.259.186-4.614 2-.413 2.11-.422 2.111-.556.056-.108-1.666-.844-2.115-3.636-2.22-3.091-.116-3.5.158-3.5 2.338m31.926-2.28c-1.021 3.433-.721 4.75 1.08 4.75 2.086 0 2.401-.777 1.387-3.418-.503-1.31-2.201-2.227-2.467-1.332M156 151.382c0 2.245.346 2.383 6 2.383 6.034 0 6.507-.28 5.393-3.183-.805-2.098-2.393-2.025-2.393.109 0 1.472-.186 1.44-1.439-.25-1.256-1.694-1.715-1.772-3.605-.617-1.191.728-1.867.84-1.502.25.365-.591-.038-1.074-.895-1.074-.976 0-1.559.891-1.559 2.382m-18 .177c0 .857.457 1.276 1.016.931.559-.346.758-1.047.441-1.559-.857-1.387-1.457-1.129-1.457.628m13.543-.628c-.317.512-.118 1.213.441 1.559.559.345 1.016-.074 1.016-.931 0-1.757-.6-2.015-1.457-.628M107.5 152c.34.55.816 1 1.059 1s.441-.45.441-1-.477-1-1.059-1-.781.45-.441 1m20 0c.34.55.816 1 1.059 1s.441-.45.441-1-.477-1-1.059-1-.781.45-.441 1m18.5 0c0 .55.45 1 1 1s1-.45 1-1-.45-1-1-1-1 .45-1 1" fill="#d28819" fill-rule="evenodd"/></svg>